<svg width="60" height="60" viewBox="0 0 60 60" fill="none" xmlns="http://www.w3.org/2000/svg">
<rect x="0.5" y="0.5" width="59" height="59" rx="29.5" stroke="#4026FF"/>
<g clip-path="url(#clip0_361_96)">
<path d="M36.193 45.0916C35.3333 45.0916 29.0949 44.6602 29.0428 44.6602C28.9907 44.6602 28.8865 44.6602 28.7302 44.6602C28.3655 44.6602 27.9357 44.5948 27.4408 44.4642C26.9719 44.3595 26.5031 44.2158 26.0342 44.0327C25.5913 43.8759 25.2007 43.6929 24.862 43.4838C24.5494 43.2746 24.3541 43.0916 24.2759 42.9347C24.2499 42.5687 24.2369 42.1897 24.2369 41.7975C24.2369 41.4054 24.2369 41.0263 24.2369 40.6603C24.2369 37.7323 24.4452 34.6735 24.862 31.4841C25.3049 28.2946 26.0212 24.8437 27.011 21.1314C27.1152 20.7654 27.2193 20.3079 27.3235 19.7589C27.4538 19.1837 27.584 18.5694 27.7143 17.9158C27.0892 18.4125 26.3468 19.2099 25.4872 20.3079C24.6276 21.3798 23.7159 22.6607 22.7521 24.1509C21.8144 25.6149 20.8636 27.2358 19.8999 29.0136C27.7143 39.0524 19.4446 29.4842 17.3211 34.386C16.5397 36.1898 15.8624 37.9806 15.2894 39.7584C14.7424 41.5361 23.8201 43.5752 23.6899 45.0916C22.4395 44.7255 12.1506 43.9674 11.6557 43.6014C11.1868 43.2354 10.9524 42.7909 10.9524 42.2681C10.9524 41.7975 11.0957 41.1308 11.3822 40.2682C11.6687 39.4054 12.0725 38.3859 12.5934 37.2094C13.1144 36.0329 13.7526 34.7258 14.5079 33.288C15.2633 31.824 16.0969 30.2553 17.0086 28.5822C18.0505 26.6738 19.0664 24.8829 20.0562 23.2098C21.072 21.5366 22.0619 20.0203 23.0256 18.6609C23.9894 17.3014 24.9272 16.125 25.8389 15.1316C26.7766 14.1381 27.7012 13.38 28.613 12.8571C28.9776 12.8571 29.4595 12.9486 30.0586 13.1316C30.6837 13.3146 31.2829 13.5368 31.8559 13.7983C32.4551 14.0597 32.976 14.3342 33.4188 14.6218C33.8877 14.8832 34.1482 15.1054 34.2003 15.2884C33.8355 16.0204 33.4058 17.1184 32.9109 18.5825C32.416 20.0465 31.908 21.7066 31.3871 23.5627C30.8922 25.4188 30.4103 27.3926 29.9414 29.4842C29.4986 31.5494 29.147 33.5363 28.8865 35.4447C29.4855 34.0069 30.1758 32.5167 30.9573 30.9743C31.7648 29.4057 32.6113 27.8632 33.497 26.3469C34.3826 24.8045 35.2812 23.3144 36.193 21.8765C37.1307 20.4386 38.0423 19.1315 38.928 17.955C39.8136 16.7524 40.6341 15.7067 41.3895 14.8178C42.171 13.929 42.8613 13.2754 43.4603 12.8571C43.825 12.8571 44.3069 12.9486 44.906 13.1316C45.5312 13.3146 46.1303 13.5368 46.7033 13.7983C47.3024 14.0597 47.8233 14.3342 48.2662 14.6218C48.7351 14.8832 48.9955 15.1054 49.0476 15.2884C48.2141 16.7786 47.4848 18.5955 46.8596 20.7393C46.2345 22.883 45.7005 25.1313 45.2576 27.4842C44.8409 29.837 44.5152 32.1768 44.2809 34.5036C44.0725 36.8042 43.9683 38.8695 43.9683 40.6995C43.9683 41.3008 43.9683 41.9283 43.9683 42.5818C43.9683 43.2354 43.9943 43.9151 44.0464 44.621C43.6817 44.621 43.239 44.5687 42.7179 44.4642C42.2231 44.3857 41.7281 44.2681 41.2333 44.1112C40.7644 43.9544 40.3346 43.7713 39.9438 43.5622C39.5532 43.3792 39.2796 43.1701 39.1233 42.9347C39.0972 42.5687 39.0843 42.1897 39.0843 41.7975C39.0843 41.4054 39.0843 41.0263 39.0843 40.6603C39.0843 37.7323 39.2927 34.6735 39.7094 31.4841C40.1522 28.2946 40.8686 24.8437 41.8584 21.1314C41.9626 20.7654 42.0798 20.2687 42.21 19.6412C42.3403 19.0138 42.4705 18.3602 42.6008 17.6805C41.8714 18.0465 41.0378 18.7524 40.1001 19.7981C39.1885 20.8177 38.2507 22.0726 37.287 23.5627C36.3493 25.0267 35.4115 26.6606 34.4737 28.4645C43.4603 38.0329 34.2003 29.0136 31.9732 33.9938C31.2438 35.85 30.6187 37.7062 30.0977 39.5623C29.6028 41.3923 28.4567 43.0524 36.193 45.0916Z" fill="#4026FF"/>
</g>
<defs>
<clipPath id="clip0_361_96">
<rect width="38.0952" height="32.381" fill="white" transform="translate(10.9524 12.8571)"/>
</clipPath>
</defs>
</svg>
